<svg width="2518" height="925" xmlns="http://www.w3.org/2000/svg" xmlns:xlink="http://www.w3.org/1999/xlink" xml:space="preserve" overflow="hidden"><g transform="translate(-37 -1158)"><text font-family="Aptos,Aptos_MSFontService,sans-serif" font-weight="700" font-size="440" transform="matrix(1 0 0 1 301.888 1697)">sc</text><text font-family="Aptos,Aptos_MSFontService,sans-serif" font-weight="700" font-size="440" transform="matrix(1 0 0 1 1038.66 1697)">Match</text><path d="M1000.66 1485.88C1013.79 1485.88 1026.38 1480.66 1035.66 1471.38 1044.94 1462.1 1050.16 1449.51 1050.16 1436.38 1050.16 1423.25 1044.94 1410.66 1035.66 1401.38 1026.38 1392.1 1013.79 1386.88 1000.66 1386.88 987.53 1386.88 974.939 1392.1 965.656 1401.38 956.372 1410.66 951.158 1423.25 951.158 1436.38 951.158 1449.51 956.372 1462.1 965.656 1471.38 974.939 1480.66 987.53 1485.88 1000.66 1485.88Z" stroke="#A02B93" stroke-width="2.88209" stroke-linejoin="round" stroke-miterlimit="10" fill="#A02B93" fill-rule="evenodd"/><path d="M835.603 1704.88C848.731 1704.88 861.322 1699.66 870.605 1690.38 879.889 1681.1 885.103 1668.51 885.103 1655.38 885.103 1642.25 879.889 1629.66 870.605 1620.38 861.322 1611.1 848.731 1605.88 835.603 1605.88 822.474 1605.88 809.884 1611.1 800.6 1620.38 791.317 1629.66 786.103 1642.25 786.103 1655.38 786.103 1668.51 791.317 1681.1 800.6 1690.38 809.884 1699.66 822.474 1704.88 835.603 1704.88Z" stroke="#EFC41C" stroke-width="2.88209" stroke-linejoin="round" stroke-miterlimit="10" fill="#EFC41C" fill-rule="evenodd"/><path d="M0 0 95.0414 148.88" stroke="#000000" stroke-width="20.625" stroke-miterlimit="8" fill="none" fill-rule="evenodd" transform="matrix(1 0 0 -1 870.5 1620.38)"/><path d="M52.1584 99.38C65.2867 99.38 77.8772 94.1648 87.1607 84.8829 96.4442 75.601 101.658 63.0068 101.658 49.88 101.658 36.7533 96.4442 24.1619 87.1607 14.8772 77.8772 5.59524 65.2867 0.380044 52.1584 0.380044 39.0301 0.380044 26.4395 5.59524 17.156 14.8772 7.87254 24.1619 2.65837 36.7533 2.65837 49.88 2.65837 63.0068 7.87254 75.601 17.156 84.8829 26.4395 94.1648 39.0301 99.38 52.1584 99.38Z" stroke="#A02B93" stroke-width="2.88209" stroke-linejoin="round" stroke-miterlimit="10" fill="#A02B93" fill-rule="evenodd" transform="matrix(1 0 0 -1 948.5 1704.5)"/><path d="M52.1029 99.38C65.2312 99.38 77.8218 94.1648 87.1053 84.8829 96.3887 75.601 101.603 63.0068 101.603 49.88 101.603 36.7533 96.3887 24.1619 87.1053 14.8772 77.8218 5.59524 65.2312 0.380044 52.1029 0.380044 38.9746 0.380044 26.3841 5.59524 17.1006 14.8772 7.8171 24.1619 2.60293 36.7533 2.60293 49.88 2.60293 63.0068 7.8171 75.601 17.1006 84.8829 26.3841 94.1648 38.9746 99.38 52.1029 99.38Z" stroke="#EFC41C" stroke-width="2.88209" stroke-linejoin="round" stroke-miterlimit="10" fill="#EFC41C" fill-rule="evenodd" transform="matrix(1 0 0 -1 783.5 1485.5)"/><path d="M870.5 1470.5 965.541 1619.38" stroke="#000000" stroke-width="20.625" stroke-miterlimit="8" fill="none" fill-rule="evenodd"/></g></svg>