<svg width="1594" height="578" xmlns="http://www.w3.org/2000/svg" xmlns:xlink="http://www.w3.org/1999/xlink" xml:space="preserve" overflow="hidden"><g transform="translate(141 82)"><path d="M5.99984 65.0015C5.99984 37.3865 28.3862 15.0001 56.0011 15.0001L1264 15.0001C1291.61 15.0001 1314 37.3865 1314 65.0015L1314 264.998C1314 292.613 1291.61 315 1264 315L56.0011 315C28.3862 315 5.99984 292.613 5.99984 264.998Z" fill="#D1D1D1" fill-rule="evenodd"/><text font-family="Aptos,Aptos_MSFontService,sans-serif" font-weight="700" font-size="275" transform="matrix(1 0 0 1 24.6107 255)">sc</text><text font-family="Aptos,Aptos_MSFontService,sans-serif" font-weight="700" font-size="275" transform="matrix(1 0 0 1 504.729 255)">Match</text><path d="M466.987 128.582C475.741 128.582 484.134 125.155 490.32 119.062 496.507 112.969 499.987 104.703 499.987 96.0822 499.987 87.4616 496.507 79.1954 490.32 73.1024 484.134 67.0094 475.741 63.5822 466.987 63.5822 458.234 63.5822 449.84 67.0094 443.652 73.1024 437.462 79.1954 433.987 87.4616 433.987 96.0822 433.987 104.703 437.462 112.969 443.652 119.062 449.84 125.155 458.234 128.582 466.987 128.582Z" stroke="#A02B93" stroke-width="1.89252" stroke-linejoin="round" stroke-miterlimit="10" fill="#A02B93" fill-rule="evenodd"/><path d="M358.487 271.582C367.106 271.582 375.373 268.155 381.468 262.062 387.564 255.969 390.987 247.703 390.987 239.082 390.987 230.462 387.564 222.195 381.468 216.102 375.373 210.009 367.106 206.582 358.487 206.582 349.867 206.582 341.6 210.009 335.505 216.102 329.41 222.195 325.987 230.462 325.987 239.082 325.987 247.703 329.41 255.969 335.505 262.062 341.6 268.155 349.867 271.582 358.487 271.582Z" stroke="#EFC41C" stroke-width="1.89252" stroke-linejoin="round" stroke-miterlimit="10" fill="#EFC41C" fill-rule="evenodd"/><path d="M0.298947 0.113571 62.2992 98.1139" stroke="#000000" stroke-width="13.5432" stroke-miterlimit="8" fill="none" fill-rule="evenodd" transform="matrix(1 0 0 -1 382 217)"/><path d="M33.3341 65.1616C42.0865 65.1616 50.4799 61.7372 56.6692 55.6431 62.8581 49.5491 66.3341 41.2799 66.3341 32.6612 66.3341 24.0425 62.8581 15.7756 56.6692 9.67972 50.4799 3.58529 42.0865 0.161262 33.3341 0.161262 24.5817 0.161262 16.1879 3.58529 9.99898 9.67972 3.81006 15.7756 0.334081 24.0425 0.334081 32.6612 0.334081 41.2799 3.81006 49.5491 9.99898 55.6431 16.1879 61.7372 24.5817 65.1616 33.3341 65.1616Z" stroke="#A02B93" stroke-width="1.89252" stroke-linejoin="round" stroke-miterlimit="10" fill="#A02B93" fill-rule="evenodd" transform="matrix(1 0 0 -1 434 272)"/><path d="M32.7695 65.0826C41.3889 65.0826 49.6555 61.6582 55.751 55.5641 61.8461 49.4701 65.2695 41.2009 65.2695 32.5822 65.2695 23.9635 61.8461 15.6966 55.751 9.60071 49.6555 3.50629 41.3889 0.0822547 32.7695 0.0822547 24.1497 0.0822547 15.8835 3.50629 9.78795 9.60071 3.6928 15.6966 0.269492 23.9635 0.269492 32.5822 0.269492 41.2009 3.6928 49.4701 9.78795 55.5641 15.8835 61.6582 24.1497 65.0826 32.7695 65.0826Z" stroke="#EFC41C" stroke-width="1.89252" stroke-linejoin="round" stroke-miterlimit="10" fill="#EFC41C" fill-rule="evenodd" transform="matrix(1 0 0 -1 326 128)"/><path d="M381.987 117.581 443.987 215.581" stroke="#000000" stroke-width="13.5432" stroke-miterlimit="8" fill="none" fill-rule="evenodd"/></g></svg>